<svg id="Layer_1" data-name="Layer 1" xmlns="http://www.w3.org/2000/svg" viewBox="0 0 800.13 799.82">
  <defs>
    <style>
      .cls-1 {
        fill: #202C36;
      }
    </style>
  </defs>
  <title>TH</title>
  <polygon class="cls-1" points="800.13 0 540.55 0 540.55 81.15 722.11 81.15 722.11 718.67 291.6 718.67 291.6 201.5 381 201.5 381 120.35 121.04 120.35 121.04 201.5 210.44 201.5 210.44 799.82 800.13 799.82 800.13 0"/>
  <polygon class="cls-1" points="600.38 120.35 600.38 359.34 504.1 359.34 504.1 0 81.15 0 0 0 0 799.82 170.56 799.82 170.56 718.67 81.15 718.67 81.15 81.15 422.95 81.15 422.95 679.47 504.1 679.47 504.1 440.49 600.38 440.49 600.38 679.47 681.53 679.47 681.53 120.35 600.38 120.35"/>
</svg>
