<?xml version="1.0" standalone="no"?>
<!DOCTYPE svg PUBLIC "-//W3C//DTD SVG 20010904//EN"
 "http://www.w3.org/TR/2001/REC-SVG-20010904/DTD/svg10.dtd">
<svg version="1.0" xmlns="http://www.w3.org/2000/svg"
 width="128.000000pt" height="128.000000pt" viewBox="0 0 128.000000 128.000000"
 preserveAspectRatio="xMidYMid meet">
<metadata>
Created by potrace 1.14, written by Peter Selinger 2001-2017
</metadata>
<g transform="translate(0.000000,128.000000) scale(0.100000,-0.100000)"
fill="#202C36" stroke="none">
<path d="M513 642 l-252 -437 255 -3 c141 -1 368 -1 505 0 l249 3 -251 435
c-138 239 -252 436 -252 437 -1 1 -115 -195 -254 -435z"/>
<path d="M332 764 c-165 -285 -295 -511 -308 -535 l-15 -29 78 0 78 0 143 246
c85 147 140 253 137 263 -3 9 -20 40 -39 70 l-34 54 -40 -69z"/>
</g>
</svg>